# File created by Blade
# Date/Time:  Wed Apr 08 17:17:01 2015
# Frame Rate: 120.000 fps
#------------------------------------------------------
:FULLY-SPECIFIED
:DEGREES
1005
root 7.015390 36.893525 6.023397 160.313808 -41.620467 -146.282061
Spine 13.892189 -4.146004 7.424551
Head 2.126424 0.294562 19.488384
LeftShoulder -6.505365 14.882975 19.335267
LeftArm 15.938466 31.460285 -74.062101
LeftForeArm 30.464123 -0.000000 24.258679
LeftHand -7.969251 -0.000000 -22.254839
LeftHandThumb1 -26.253704 0.000000 33.147579
RightShoulder -41.090692 -48.221038 32.000246
RightArm 47.461712 -13.012257 64.330561
RightForeArm 37.784342 -0.000000 17.803430
RightHand -2.965184 -0.000000 6.771067
RightHandThumb1 -24.326973 -0.000000 -32.862282
LeftUpLeg -19.899375 51.080164 6.742451
LeftLeg 24.696253 -0.000000 -0.000000
LeftFoot -26.159841 18.648373 -14.939848
LeftToeBase 6.249616 -0.000000 -0.000000
RightUpLeg -10.744979 -21.235803 -32.414061
RightLeg 150.235340 -0.000000 -0.000000
RightFoot 37.808290 11.095404 12.310529
RightToeBase 1.367272 -0.000000 -0.000000
1006
root 7.031065 36.909330 6.000609 160.148538 -41.768758 -146.084202
Spine 13.892691 -4.286920 7.355504
Head 2.212925 0.026966 19.655993
LeftShoulder -6.481277 14.879519 19.378948
LeftArm 15.934081 31.482507 -74.007385
LeftForeArm 30.634954 -0.000000 24.284176
LeftHand -7.987438 0.000000 -22.384657
LeftHandThumb1 -26.253704 0.000000 33.147579
RightShoulder -41.137784 -48.230033 32.010305
RightArm 47.355747 -13.151344 64.453903
RightForeArm 37.684918 -0.000000 17.504482
RightHand -3.088673 0.000000 6.835678
RightHandThumb1 -24.326973 -0.000000 -32.862282
LeftUpLeg -19.942369 51.182216 6.832142
LeftLeg 24.690103 -0.000000 -0.000000
LeftFoot -26.047123 18.376231 -14.914533
LeftToeBase 6.235021 -0.000000 -0.000000
RightUpLeg -9.871697 -21.139812 -32.327593
RightLeg 149.999487 -0.000000 -0.000000
RightFoot 37.788113 11.152088 12.092334
RightToeBase 1.372230 -0.000000 -0.000000
1007
root 7.045544 36.924785 5.980789 160.020549 -41.920741 -145.918691
Spine 13.884973 -4.401321 7.268544
Head 2.285661 -0.201325 19.784272
LeftShoulder -6.482491 14.863753 19.409639
LeftArm 15.940956 31.515170 -73.944953
LeftForeArm 30.741659 -0.000000 24.335257
LeftHand -8.011602 -0.000000 -22.456724
LeftHandThumb1 -26.253704 0.000000 33.147579
RightShoulder -41.206196 -48.220456 32.096540
RightArm 47.229128 -13.242841 64.483354
RightForeArm 37.586544 0.000000 17.317913
RightHand -3.373519 -0.000000 6.872953
RightHandThumb1 -24.326973 -0.000000 -32.862282
LeftUpLeg -20.006177 51.279249 6.873757
LeftLeg 24.675233 -0.000000 -0.000000
LeftFoot -25.888499 18.095793 -14.861829
LeftToeBase 6.100940 -0.000000 -0.000000
RightUpLeg -8.985256 -20.923436 -32.294996
RightLeg 149.772479 -0.000000 -0.000000
RightFoot 37.878000 11.069960 12.530443
RightToeBase 1.447848 -0.000000 -0.000000
1008
root 7.060585 36.938785 5.958257 159.900384 -42.072909 -145.767406
Spine 13.859374 -4.476676 7.170888
Head 2.339199 -0.412834 19.917206
LeftShoulder -6.470889 14.837150 19.466755
LeftArm 15.929972 31.550806 -73.904591
LeftForeArm 30.778484 -0.000000 24.388320
LeftHand -8.031207 0.000000 -22.461069
LeftHandThumb1 -26.253704 0.000000 33.147579
RightShoulder -41.406516 -48.282337 32.299746
RightArm 47.176444 -13.406375 64.401248
RightForeArm 37.531778 -0.000000 17.208997
RightHand -3.562541 0.000000 6.953507
RightHandThumb1 -24.326973 -0.000000 -32.862282
LeftUpLeg -20.057460 51.317172 6.927155
LeftLeg 24.677576 -0.000000 -0.000000
LeftFoot -25.753349 17.876551 -14.803314
LeftToeBase 6.034153 -0.000000 -0.000000
RightUpLeg -8.169846 -20.794881 -32.232292
RightLeg 149.569873 -0.000000 -0.000000
RightFoot 38.024946 11.316970 12.279886
RightToeBase 0.724264 -0.000000 -0.000000
1009
root 7.071727 36.952445 5.934986 159.776561 -42.195116 -145.618833
Spine 13.835179 -4.524338 7.098958
Head 2.366797 -0.569975 20.024517
LeftShoulder -6.502158 14.853049 19.493859
LeftArm 15.961748 31.606626 -73.837393
LeftForeArm 30.721429 -0.000000 24.491885
LeftHand -8.075056 -0.000000 -22.421528
LeftHandThumb1 -26.253704 0.000000 33.147579
RightShoulder -41.524905 -48.322317 32.413100
RightArm 47.006748 -13.589614 64.362869
RightForeArm 37.511696 -0.000000 17.109427
RightHand -3.585348 -0.000000 7.010961
RightHandThumb1 -24.326973 -0.000000 -32.862282
LeftUpLeg -20.098646 51.335370 7.024431
LeftLeg 24.739157 -0.000000 -0.000000
LeftFoot -25.626814 17.643989 -14.774340
LeftToeBase 5.960924 -0.000000 -0.000000
RightUpLeg -7.301260 -20.629024 -32.164797
RightLeg 149.363188 -0.000000 -0.000000
RightFoot 37.825127 11.051697 12.696895
RightToeBase 1.414832 -0.000000 -0.000000
1010
root 7.082575 36.966095 5.911220 159.669898 -42.303939 -145.480299
Spine 13.786622 -4.513878 7.034472
Head 2.382628 -0.721475 20.140518
LeftShoulder -6.498452 14.852245 19.536343
LeftArm 15.934990 31.576824 -73.838757
LeftForeArm 30.635985 -0.000000 24.629172
LeftHand -8.159625 -0.000000 -22.391143
LeftHandThumb1 -26.253704 0.000000 33.147579
RightShoulder -41.765081 -48.396134 32.649050
RightArm 46.887556 -13.791937 64.263883
RightForeArm 37.605978 0.000000 17.060524
RightHand -3.615033 -0.000000 6.982690
RightHandThumb1 -24.326973 -0.000000 -32.862282
LeftUpLeg -20.182484 51.342695 7.124765
LeftLeg 24.874804 -0.000000 -0.000000
LeftFoot -25.466804 17.414358 -14.716537
LeftToeBase 5.793385 -0.000000 -0.000000
RightUpLeg -6.456902 -20.440088 -32.076463
RightLeg 149.159681 -0.000000 -0.000000
RightFoot 37.641914 10.741414 13.228355
RightToeBase 1.907425 -0.000000 -0.000000
1011
root 7.092480 36.980035 5.889998 159.559974 -42.377179 -145.348119
Spine 13.748831 -4.478582 6.996453
Head 2.396115 -0.838519 20.203190
LeftShoulder -6.510241 14.862993 19.554053
LeftArm 15.923887 31.566732 -73.840382
LeftForeArm 30.490290 -0.000000 24.757792
LeftHand -8.211145 -0.000000 -22.238134
LeftHandThumb1 -26.253704 0.000000 33.147579
RightShoulder -41.975125 -48.456412 32.829517
RightArm 46.778395 -14.013210 64.159180
RightForeArm 37.709761 -0.000000 16.946887
RightHand -3.657439 -0.000000 6.942216
RightHandThumb1 -24.326973 -0.000000 -32.862282
LeftUpLeg -20.262878 51.340796 7.273518
LeftLeg 25.091694 -0.000000 -0.000000
LeftFoot -25.323868 17.163196 -14.762700
LeftToeBase 5.566834 -0.000000 -0.000000
RightUpLeg -5.665617 -20.363819 -31.943947
RightLeg 148.941918 -0.000000 -0.000000
RightFoot 37.571277 10.811377 12.574500
RightToeBase 0.984941 -0.000000 -0.000000
1012
root 7.104487 36.993921 5.865640 159.462330 -42.433526 -145.236481
Spine 13.704013 -4.428729 6.931611
Head 2.414540 -0.919301 20.296082
LeftShoulder -6.523732 14.892186 19.595721
LeftArm 15.866051 31.502641 -73.887759
LeftForeArm 30.401699 0.000000 24.946647
LeftHand -8.262671 -0.000000 -22.088100
LeftHandThumb1 -26.253704 0.000000 33.147579
RightShoulder -42.166719 -48.531833 33.012247
RightArm 46.682858 -14.218106 64.093934
RightForeArm 37.771254 -0.000000 16.763796
RightHand -3.581732 -0.000000 7.057294
RightHandThumb1 -24.326973 -0.000000 -32.862282
LeftUpLeg -20.385433 51.425554 7.420618
LeftLeg 25.404859 -0.000000 -0.000000
LeftFoot -25.163969 16.849729 -14.764083
LeftToeBase 5.282481 -0.000000 -0.000000
RightUpLeg -4.883978 -20.095894 -31.828027
RightLeg 148.713156 -0.000000 -0.000000
RightFoot 37.420068 10.569436 12.953350
RightToeBase 1.931877 -0.000000 -0.000000
1013
root 7.117772 37.008304 5.839459 159.379557 -42.465201 -145.147545
Spine 13.656982 -4.356955 6.842698
Head 2.437861 -0.984356 20.413569
LeftShoulder -6.562721 14.949838 19.622775
LeftArm 15.854052 31.421750 -73.895046
LeftForeArm 30.006895 -0.000000 25.156397
LeftHand -8.461578 -0.000000 -22.109399
LeftHandThumb1 -26.253704 0.000000 33.147579
RightShoulder -42.313344 -48.588188 33.156283
RightArm 46.539933 -14.391432 64.110981
RightForeArm 37.799853 -0.000000 16.604482
RightHand -3.623851 0.000000 6.946591
RightHandThumb1 -24.326973 -0.000000 -32.862282
LeftUpLeg -20.461815 51.487273 7.605608
LeftLeg 25.711303 -0.000000 -0.000000
LeftFoot -25.000530 16.505771 -14.792466
LeftToeBase 5.007833 -0.000000 -0.000000
RightUpLeg -4.156565 -19.798218 -31.687093
RightLeg 148.470733 -0.000000 -0.000000
RightFoot 37.367860 10.456300 13.262482
RightToeBase 2.619384 -0.000000 -0.000000
1014
root 7.130322 37.022513 5.814679 159.335310 -42.486847 -145.105521
Spine 13.595663 -4.269740 6.723915
Head 2.471353 -1.036527 20.546368
LeftShoulder -6.609171 14.974741 19.641516
LeftArm 15.820134 31.471695 -73.878873
LeftForeArm 29.695701 -0.000000 25.349544
LeftHand -8.542413 0.000000 -22.152819
LeftHandThumb1 -26.253704 0.000000 33.147579
RightShoulder -42.426295 -48.637037 33.255369
RightArm 46.418880 -14.585792 64.136739
RightForeArm 37.792559 -0.000000 16.366463
RightHand -3.637689 -0.000000 6.852574
RightHandThumb1 -24.326973 -0.000000 -32.862282
LeftUpLeg -20.527109 51.532682 7.795946
LeftLeg 26.059983 -0.000000 -0.000000
LeftFoot -24.776891 16.136940 -14.774794
LeftToeBase 4.636768 -0.000000 -0.000000
RightUpLeg -3.482126 -19.511281 -31.577746
RightLeg 148.219691 -0.000000 -0.000000
RightFoot 37.416350 10.372226 13.496225
RightToeBase 3.120800 -0.000000 -0.000000
1015
root 7.144216 37.036383 5.791230 159.316059 -42.491902 -145.080474
Spine 13.520771 -4.177631 6.589714
Head 2.505385 -1.101018 20.687299
LeftShoulder -6.667172 14.983692 19.659656
LeftArm 15.730789 31.460903 -73.922368
LeftForeArm 29.608955 -0.000000 25.541846
LeftHand -8.539396 -0.000000 -22.183724
LeftHandThumb1 -26.253704 0.000000 33.147579
RightShoulder -42.459960 -48.669487 33.294445
RightArm 46.241752 -14.748904 64.197951
RightForeArm 37.736119 0.000000 16.156929
RightHand -3.751352 -0.000000 6.805614
RightHandThumb1 -24.326973 -0.000000 -32.862282
LeftUpLeg -20.578874 51.475267 8.025899
LeftLeg 26.458278 -0.000000 -0.000000
LeftFoot -24.587589 15.775044 -14.810412
LeftToeBase 4.314877 -0.000000 -0.000000
RightUpLeg -2.860157 -19.258429 -31.458818
RightLeg 147.987229 -0.000000 -0.000000
RightFoot 37.405904 10.237658 13.769234
RightToeBase 3.648051 -0.000000 -0.000000
1016
root 7.153714 37.050718 5.765317 159.323951 -42.477505 -145.113815
Spine 13.431287 -4.044694 6.416579
Head 2.591564 -1.165714 20.847548
LeftShoulder -6.709530 15.046581 19.656039
LeftArm 15.687161 31.445535 -73.933438
LeftForeArm 29.574928 -0.000000 25.714015
LeftHand -8.452606 0.000000 -22.291077
LeftHandThumb1 -26.253704 0.000000 33.147579
RightShoulder -42.533632 -48.730436 33.397137
RightArm 46.086831 -14.908339 64.241077
RightForeArm 37.678573 -0.000000 15.960908
RightHand -3.637993 0.000000 6.551545
RightHandThumb1 -24.326973 -0.000000 -32.862282
LeftUpLeg -20.548573 51.449743 8.302651
LeftLeg 26.870488 -0.000000 -0.000000
LeftFoot -24.330661 15.326516 -14.729405
LeftToeBase 3.961704 -0.000000 -0.000000
RightUpLeg -2.242752 -19.024944 -31.391582
RightLeg 147.749133 -0.000000 -0.000000
RightFoot 37.295999 10.056317 13.916732
RightToeBase 3.925724 -0.000000 -0.000000
1017
root 7.164201 37.063140 5.733364 159.392869 -42.584563 -145.197419
Spine 13.282784 -4.006003 6.118289
Head 2.669369 -1.233942 21.074775
LeftShoulder -6.761853 15.097393 19.672945
LeftArm 15.578830 31.459720 -73.930361
LeftForeArm 29.614445 -0.000000 25.943057
LeftHand -8.468293 -0.000000 -22.357367
LeftHandThumb1 -26.253704 0.000000 33.147579
RightShoulder -42.670318 -48.799081 33.604052
RightArm 45.976144 -15.141348 64.151282
RightForeArm 37.697717 -0.000000 15.804274
RightHand -3.641123 -0.000000 6.215395
RightHandThumb1 -24.326973 -0.000000 -32.862282
LeftUpLeg -20.533484 51.128891 8.541849
LeftLeg 27.327747 -0.000000 -0.000000
LeftFoot -24.093651 14.852750 -14.821253
LeftToeBase 3.606584 -0.000000 -0.000000
RightUpLeg -1.579782 -18.845332 -31.448533
RightLeg 147.484235 -0.000000 -0.000000
RightFoot 37.188911 9.873232 14.091580
RightToeBase 4.296797 -0.000000 -0.000000
